<?xml version="1.0" encoding="utf-8"?>
<!-- Generator: Adobe Illustrator 24.1.1, SVG Export Plug-In . SVG Version: 6.00 Build 0)  -->
<svg version="1.1" id="Layer_1" xmlns="http://www.w3.org/2000/svg" xmlns:xlink="http://www.w3.org/1999/xlink" x="0px" y="0px"
	 viewBox="0 0 224.9 201.9" style="enable-background:new 0 0 224.9 201.9;" xml:space="preserve">
<style type="text/css">
	.st0{fill:#61C8D2;}
	.st1{fill:#20BEC6;}
	.st2{fill:#006CB7;}
	.st3{fill:#4251A3;}
</style>
<g>
	<path class="st0" d="M168,107.5C129.6,145.5,62,127,40.3,73.9l0.1,0c-0.2-0.3-0.3-0.6-0.5-1c-3.4-8.2,1.7-18,10.5-22.2
		c8.3-4,17.8-1.7,21.7,5.1c0.2,0.3,0.3,0.6,0.4,0.9l0,0c19.5,33.9,65.9,46.3,92.6,24c21.4-17.9,15.4-48.7-5.4-68.2
		c0.1,0.1,0.2,0.2,0.3,0.3C186.5,37.4,196.1,79.7,168,107.5"/>
	<path class="st1" d="M161.3,69.5c-23.5,17.9-63.5,7.2-81.2-21.2l0,0c-0.1-0.2-0.3-0.4-0.4-0.6c-3-4.7-1-10.5,4.1-12.9
		c4.9-2.3,11.2-0.8,14.3,3.4c0.1,0.2,0.2,0.4,0.4,0.6l0,0c14.7,19.8,44,27.6,61.3,15.8c15.1-10.3,12.1-30.4-2.7-44.3
		c0.1,0.1,0.2,0.1,0.2,0.2C176.1,27.9,180.8,54.6,161.3,69.5"/>
	<path class="st2" d="M161.5,32.2c0.3-20.8-23.3-35.8-44.2-28.6l0,0c-0.1,0-0.3,0-0.4,0.1c-3.2,1.1-4.6,5-3.4,8.7
		c1.2,3.4,4.3,5.6,7.3,5c0.1,0,0.2-0.1,0.4-0.1l0,0c14.9-2.9,31,7.4,31.9,20.8c0.8,10.8-9.5,16.8-20.7,15.7c0.1,0,0.1,0,0.2,0
		C146.8,55.3,161.3,47.4,161.5,32.2"/>
	<path class="st1" d="M149.6,38.9c-1.1-11.7-15-20.6-28.1-18.1v0c-0.1,0-0.2,0-0.3,0c-2.2,0.4-3.4,2.5-2.7,4.7
		c0.6,2.1,2.8,3.5,4.9,3.3c0.1,0,0.2,0,0.3,0v0c9.8-1.1,20,5.5,21.2,13.7c1,7.2-5.7,11.7-13.8,11.1c0,0,0.1,0,0.1,0
		C141.4,54.5,150.5,48.7,149.6,38.9"/>
</g>
<g>
	<path class="st2" d="M17.7,149.1v25.4h-6.4v-25.4H1.9v-5.4H27v5.4H17.7z"/>
	<path class="st2" d="M54.8,143.6v5.4H38.5v6.5h15v5.4h-15v8h17.1v5.5H32.1v-30.8H54.8z"/>
	<path class="st2" d="M88.2,153.7h-6.4c-0.4-1.5-1-2.6-1.6-3.3c-1.2-1.3-2.9-2-5.2-2c-2,0-3.7,0.7-5,2.1c-1.8,1.9-2.7,4.8-2.7,8.7
		c0,3,0.6,5.4,1.8,7.3c1.3,2.1,3.3,3.2,5.9,3.2c1.8,0,3.3-0.5,4.4-1.5c1.2-1,2-2.4,2.3-4.3h6.4c-0.7,3.5-2.1,6.2-4.3,8.2
		c-2.3,2.1-5.4,3.2-9.2,3.2c-4.2,0-7.6-1.4-10.1-4.1c-2.7-2.9-4-6.9-4-12.1c0-5.2,1.4-9.3,4.1-12.2c2.6-2.7,5.9-4.1,10.1-4.1
		c4.2,0,7.6,1.2,10.1,3.7C87.2,148.6,88.2,151,88.2,153.7z"/>
	<path class="st2" d="M112.8,160.7h-12v13.8h-6.4v-30.8h6.4v11.7h12v-11.7h6.4v30.8h-6.4V160.7z"/>
	<path class="st0" d="M144.8,143.6h6.7L141,174.5h-6.1l-10.4-30.8h6.9L138,167L144.8,143.6z"/>
	<path class="st0" d="M162.8,143.6v30.8h-6.4v-30.8H162.8z"/>
	<path class="st0" d="M192.2,143.6v5.4h-16.3v6.5h15v5.4h-15v8H193v5.5h-23.5v-30.8H192.2z"/>
	<path class="st0" d="M212.6,149.1v25.4h-6.4v-25.4h-9.4v-5.4h25.1v5.4H212.6z"/>
</g>
<g>
	<path class="st3" d="M33.5,191.6c-0.5,0.3-1.1,0.6-1.8,0.7c-0.3,0.1-0.6,0.1-1,0.1c-0.3,0-0.6,0-1,0h-2.6v5.9h-1.5v-14.7h4.1
		c0.4,0,0.7,0,1,0c0.4,0,0.7,0.1,1,0.1c0.7,0.1,1.3,0.4,1.8,0.7c1.2,0.8,1.8,2,1.8,3.5S34.7,190.8,33.5,191.6z M32.1,185.4
		c-0.4-0.2-0.8-0.3-1.2-0.3l-0.6,0h-3.2v6.1h3.2l0.6,0c0.5,0,0.9-0.2,1.2-0.3c1.1-0.5,1.7-1.4,1.7-2.7
		C33.9,186.8,33.3,185.9,32.1,185.4z"/>
	<path class="st3" d="M40.8,188.7c-2.1,0.2-3.1,1.3-3.1,3.3v6.4h-1.4v-10.9h1.4v1.6h0c0.3-0.7,0.7-1.1,1.2-1.4
		c0.4-0.2,1.1-0.4,1.8-0.4V188.7z"/>
	<path class="st3" d="M50.6,197c-1.1,1.1-2.5,1.7-4,1.7c-1.5,0-2.9-0.6-4-1.7c-1.1-1.1-1.7-2.4-1.7-4c0-1.6,0.6-2.9,1.7-4.1
		c1.1-1.1,2.5-1.7,4-1.7c1.5,0,2.9,0.6,4,1.7c1.1,1.1,1.7,2.5,1.7,4C52.3,194.5,51.7,195.8,50.6,197z M49.6,189.8
		c-0.8-0.9-1.9-1.3-3-1.3c-1.2,0-2.2,0.5-3.1,1.4c-0.8,0.9-1.2,1.9-1.2,3.2c0,1.2,0.4,2.2,1.3,3.1c0.8,0.9,1.9,1.3,3.1,1.3
		c1.2,0,2.3-0.4,3.1-1.3c0.8-0.9,1.2-1.9,1.2-3.2C50.9,191.7,50.5,190.6,49.6,189.8z"/>
	<path class="st3" d="M55.6,188.7v9.6h-1.4v-9.6h-1.7v-1.3h1.7l0-0.4c0-0.2,0-0.3,0-0.4c0-0.3,0.1-0.6,0.1-0.8
		c0.2-0.9,0.7-1.6,1.5-2c0.6-0.3,1.5-0.5,2.5-0.5v1.3c-1.9,0-2.8,0.9-2.8,2.7v0.1h2.8v1.3H55.6z"/>
	<path class="st3" d="M69.6,193.4h-9.9c0.1,1.1,0.5,2,1.4,2.8c0.8,0.8,1.8,1.2,2.9,1.2c0.9,0,1.6-0.2,2.4-0.7
		c0.7-0.5,1.3-1.1,1.5-1.9h1.5c-0.4,1.1-1.1,2.1-2.1,2.8c-1,0.7-2.1,1.1-3.3,1.1c-1.6,0-2.9-0.6-4-1.7c-1.1-1.1-1.7-2.4-1.7-4
		c0-1.6,0.6-2.9,1.7-4c1.1-1.1,2.4-1.7,4-1.7c1.6,0,2.9,0.6,4,1.7c1.1,1.1,1.7,2.5,1.7,4.1L69.6,193.4z M68.2,192.2
		c-0.2-1.1-0.7-2-1.4-2.7c-0.8-0.7-1.7-1.1-2.8-1.1c-1.1,0-2,0.4-2.8,1.1c-0.8,0.7-1.3,1.6-1.4,2.7H68.2z"/>
	<path class="st3" d="M73.4,198.6c-1,0-1.8-0.3-2.4-1c-0.6-0.6-0.9-1.4-0.9-2.4v-0.1h1.4c0,1.5,0.7,2.2,2,2.2c1.4,0,2-0.7,2-2
		c0-0.6-0.3-1.1-0.8-1.5c-0.2-0.1-0.5-0.3-0.8-0.4l-0.9-0.4c-0.4-0.1-0.7-0.3-0.9-0.4c-0.3-0.2-0.6-0.3-0.8-0.5
		c-0.5-0.5-0.8-1.1-0.8-1.9c0-0.9,0.3-1.6,0.9-2.2c0.6-0.6,1.3-0.8,2.2-0.8c0.8,0,1.5,0.3,2.1,0.9c0.6,0.6,0.9,1.3,0.9,2.1H75
		c-0.1-1.1-0.6-1.7-1.6-1.7c-1.1,0-1.7,0.5-1.7,1.6c0,0.5,0.3,1,0.8,1.3c0.2,0.1,0.5,0.3,0.8,0.4l0.2,0.1c0.1,0,0.1,0,0.2,0.1
		l0.5,0.2c0.4,0.2,0.7,0.3,0.9,0.4c0.3,0.2,0.6,0.4,0.8,0.6c0.5,0.5,0.8,1.3,0.8,2.2C76.8,197.5,75.6,198.6,73.4,198.6z"/>
	<path class="st3" d="M80.2,198.6c-1,0-1.8-0.3-2.4-1c-0.6-0.6-0.9-1.4-0.9-2.4v-0.1h1.4c0,1.5,0.7,2.2,2,2.2c1.4,0,2-0.7,2-2
		c0-0.6-0.3-1.1-0.8-1.5c-0.2-0.1-0.5-0.3-0.8-0.4l-0.9-0.4c-0.4-0.1-0.7-0.3-0.9-0.4c-0.3-0.2-0.6-0.3-0.8-0.5
		c-0.5-0.5-0.8-1.1-0.8-1.9c0-0.9,0.3-1.6,0.9-2.2c0.6-0.6,1.3-0.8,2.2-0.8c0.8,0,1.5,0.3,2.1,0.9c0.6,0.6,0.9,1.3,0.9,2.1h-1.4
		c-0.1-1.1-0.6-1.7-1.6-1.7c-1.1,0-1.7,0.5-1.7,1.6c0,0.5,0.3,1,0.8,1.3c0.2,0.1,0.5,0.3,0.8,0.4l0.2,0.1c0.1,0,0.1,0,0.2,0.1
		l0.5,0.2c0.4,0.2,0.7,0.3,0.9,0.4c0.3,0.2,0.6,0.4,0.8,0.6c0.5,0.5,0.8,1.3,0.8,2.2C83.6,197.5,82.4,198.6,80.2,198.6z"/>
	<path class="st3" d="M84.4,186.2v-2.5h1.4v2.5H84.4z M84.4,198.4v-10.9h1.4v10.9H84.4z"/>
	<path class="st3" d="M96.7,197c-1.1,1.1-2.5,1.7-4,1.7c-1.5,0-2.9-0.6-4-1.7c-1.1-1.1-1.7-2.4-1.7-4c0-1.6,0.6-2.9,1.7-4.1
		c1.1-1.1,2.4-1.7,4-1.7c1.5,0,2.9,0.6,4,1.7c1.1,1.1,1.7,2.5,1.7,4C98.4,194.5,97.9,195.8,96.7,197z M95.8,189.8
		c-0.8-0.9-1.9-1.3-3-1.3c-1.2,0-2.2,0.5-3.1,1.4c-0.8,0.9-1.2,1.9-1.2,3.2c0,1.2,0.4,2.2,1.3,3.1c0.8,0.9,1.9,1.3,3.1,1.3
		c1.2,0,2.3-0.4,3.1-1.3c0.8-0.9,1.2-1.9,1.2-3.2C97,191.7,96.6,190.6,95.8,189.8z"/>
	<path class="st3" d="M107.8,198.4v-6c0-0.6-0.1-1.1-0.2-1.6c-0.2-0.6-0.4-1-0.8-1.4c-0.7-0.6-1.4-0.9-2.4-0.9
		c-0.9,0-1.7,0.3-2.4,0.9c-0.4,0.3-0.6,0.8-0.8,1.3c-0.2,0.5-0.2,1-0.2,1.5v6.1h-1.4v-10.9h1.4v1.4h0c0.7-1.1,1.8-1.7,3.4-1.7
		c1.5,0,2.7,0.5,3.6,1.5c0.8,0.9,1.2,2.2,1.2,3.7v6H107.8z"/>
	<path class="st3" d="M120.5,198.4v-1.9h0c-1,1.5-2.4,2.2-4.2,2.2c-1.6,0-3-0.5-4.2-1.6c-1.1-1.1-1.7-2.5-1.7-4.1
		c0-1.6,0.6-3,1.7-4.1c1.1-1.1,2.5-1.6,4.1-1.6c1.9,0,3.3,0.7,4.2,2.2h0v-1.9h1.4v10.9H120.5z M119.4,189.8
		c-0.8-0.9-1.9-1.3-3.1-1.3c-1.3,0-2.4,0.4-3.2,1.3c-0.8,0.9-1.3,1.9-1.3,3.2c0,1.3,0.4,2.3,1.3,3.2c0.8,0.8,1.9,1.3,3.2,1.3
		c1.2,0,2.3-0.4,3.1-1.3c0.8-0.9,1.3-1.9,1.3-3.1S120.2,190.7,119.4,189.8z"/>
	<path class="st3" d="M123.5,198.4v-14.7h1.4v14.7H123.5z"/>
	<path class="st3" d="M133.7,198.6c-1,0-1.8-0.3-2.4-1c-0.6-0.6-0.9-1.4-0.9-2.4v-0.1h1.4c0,1.5,0.7,2.2,2,2.2c1.4,0,2-0.7,2-2
		c0-0.6-0.3-1.1-0.8-1.5c-0.2-0.1-0.5-0.3-0.8-0.4l-0.9-0.4c-0.4-0.1-0.7-0.3-0.9-0.4c-0.3-0.2-0.6-0.3-0.8-0.5
		c-0.5-0.5-0.8-1.1-0.8-1.9c0-0.9,0.3-1.6,0.9-2.2c0.6-0.6,1.3-0.8,2.2-0.8c0.8,0,1.5,0.3,2.1,0.9c0.6,0.6,0.9,1.3,0.9,2.1h-1.4
		c-0.1-1.1-0.6-1.7-1.6-1.7c-1.1,0-1.7,0.5-1.7,1.6c0,0.5,0.3,1,0.8,1.3c0.2,0.1,0.5,0.3,0.8,0.4l0.2,0.1c0.1,0,0.1,0,0.2,0.1
		l0.5,0.2c0.4,0.2,0.7,0.3,0.9,0.4c0.3,0.2,0.6,0.4,0.8,0.6c0.5,0.5,0.8,1.3,0.8,2.2C137.1,197.5,136,198.6,133.7,198.6z"/>
	<path class="st3" d="M148.8,193.4h-9.9c0.1,1.1,0.5,2,1.4,2.8c0.8,0.8,1.8,1.2,2.9,1.2c0.9,0,1.6-0.2,2.4-0.7
		c0.7-0.5,1.3-1.1,1.5-1.9h1.5c-0.4,1.1-1.1,2.1-2.1,2.8c-1,0.7-2.1,1.1-3.3,1.1c-1.6,0-2.9-0.6-4-1.7c-1.1-1.1-1.7-2.4-1.7-4
		c0-1.6,0.6-2.9,1.7-4c1.1-1.1,2.4-1.7,4-1.7c1.6,0,2.9,0.6,4,1.7c1.1,1.1,1.7,2.5,1.7,4.1L148.8,193.4z M147.4,192.2
		c-0.2-1.1-0.7-2-1.4-2.7c-0.8-0.7-1.7-1.1-2.8-1.1c-1.1,0-2,0.4-2.8,1.1c-0.8,0.7-1.3,1.6-1.4,2.7H147.4z"/>
	<path class="st3" d="M154.5,188.7c-2.1,0.2-3.1,1.3-3.1,3.3v6.4H150v-10.9h1.4v1.6h0c0.3-0.7,0.7-1.1,1.2-1.4
		c0.4-0.2,1.1-0.4,1.8-0.4V188.7z"/>
	<path class="st3" d="M160.1,198.4h-1.5l-4.6-10.9h1.5l3.8,9.2l3.9-9.2h1.5L160.1,198.4z"/>
	<path class="st3" d="M165.2,186.2v-2.5h1.4v2.5H165.2z M165.2,198.4v-10.9h1.4v10.9H165.2z"/>
	<path class="st3" d="M179,195.2c-1.2,2.3-3,3.5-5.4,3.5c-1.6,0-3-0.5-4.1-1.6c-1.1-1.1-1.7-2.5-1.7-4.1c0-1.6,0.6-3,1.7-4.1
		c1.1-1.1,2.5-1.7,4.1-1.7c1.2,0,2.3,0.3,3.3,0.9c1,0.6,1.7,1.5,2.2,2.6h-1.5c-0.8-1.5-2.1-2.3-3.8-2.3c-1.3,0-2.3,0.4-3.2,1.3
		c-0.9,0.9-1.3,1.9-1.3,3.2c0,1.3,0.4,2.3,1.3,3.2c0.9,0.9,1.9,1.3,3.2,1.3c1.8,0,3.1-0.7,3.8-2.2H179z"/>
	<path class="st3" d="M191,193.4h-9.9c0.1,1.1,0.5,2,1.4,2.8c0.8,0.8,1.8,1.2,2.9,1.2c0.9,0,1.6-0.2,2.4-0.7
		c0.7-0.5,1.3-1.1,1.5-1.9h1.5c-0.4,1.1-1.1,2.1-2.1,2.8c-1,0.7-2.1,1.1-3.3,1.1c-1.6,0-2.9-0.6-4-1.7c-1.1-1.1-1.7-2.4-1.7-4
		c0-1.6,0.6-2.9,1.7-4c1.1-1.1,2.4-1.7,4-1.7c1.6,0,2.9,0.6,4,1.7c1.1,1.1,1.7,2.5,1.7,4.1L191,193.4z M189.6,192.2
		c-0.2-1.1-0.7-2-1.4-2.7c-0.8-0.7-1.7-1.1-2.8-1.1c-1.1,0-2,0.4-2.8,1.1c-0.8,0.7-1.3,1.6-1.4,2.7H189.6z"/>
	<path class="st3" d="M194.8,198.6c-1,0-1.8-0.3-2.4-1c-0.6-0.6-0.9-1.4-0.9-2.4v-0.1h1.4c0,1.5,0.7,2.2,2,2.2c1.4,0,2-0.7,2-2
		c0-0.6-0.3-1.1-0.8-1.5c-0.2-0.1-0.5-0.3-0.8-0.4l-0.9-0.4c-0.4-0.1-0.7-0.3-0.9-0.4c-0.3-0.2-0.6-0.3-0.8-0.5
		c-0.5-0.5-0.8-1.1-0.8-1.9c0-0.9,0.3-1.6,0.9-2.2c0.6-0.6,1.3-0.8,2.2-0.8c0.8,0,1.5,0.3,2.1,0.9c0.6,0.6,0.9,1.3,0.9,2.1h-1.4
		c-0.1-1.1-0.6-1.7-1.6-1.7c-1.1,0-1.7,0.5-1.7,1.6c0,0.5,0.3,1,0.8,1.3c0.2,0.1,0.5,0.3,0.8,0.4l0.2,0.1c0.1,0,0.1,0,0.2,0.1
		l0.5,0.2c0.4,0.2,0.7,0.3,0.9,0.4c0.3,0.2,0.6,0.4,0.8,0.6c0.5,0.5,0.8,1.3,0.8,2.2C198.2,197.5,197.1,198.6,194.8,198.6z"/>
</g>
</svg>
