<?xml version="1.0" encoding="utf-8"?>
<!-- Generator: Adobe Illustrator 24.1.1, SVG Export Plug-In . SVG Version: 6.00 Build 0)  -->
<svg version="1.1" id="Layer_1" xmlns="http://www.w3.org/2000/svg" xmlns:xlink="http://www.w3.org/1999/xlink" x="0px" y="0px"
	 viewBox="0 0 271.8 80" style="enable-background:new 0 0 271.8 80;" xml:space="preserve">
<style type="text/css">
	.st0{fill:#FFFFFF;}
</style>
<g>
	<path class="st0" d="M76.7,63C54.6,85,15.6,74.2,3,43.6l0,0c0-0.2-0.1-0.4-0.2-0.6c-1.9-4.7,1-10.4,6.1-12.8c4.8-2.3,10.2-1,12.5,3
		c0.1,0.2,0.2,0.3,0.3,0.5l0,0c11.3,19.5,38,26.7,53.4,13.8C87.5,37.2,84,19.4,72,8.2c0.1,0.1,0.1,0.1,0.2,0.2
		C87.4,22.6,92.9,47,76.7,63"/>
	<path class="st0" d="M72.9,41.1C59.3,51.4,36.2,45.2,26,28.9l0,0c-0.1-0.1-0.2-0.2-0.2-0.3c-1.7-2.7-0.6-6.1,2.4-7.5
		c2.8-1.3,6.5-0.5,8.3,2c0.1,0.1,0.1,0.2,0.2,0.3l0,0C45.1,34.8,62,39.3,72,32.5c8.7-6,7-17.6-1.6-25.6L70.5,7
		C81.4,17.1,84.1,32.5,72.9,41.1"/>
	<path class="st0" d="M73,19.6C73.1,7.5,59.5-1.1,47.5,3l0,0c-0.1,0-0.2,0-0.2,0.1c-1.9,0.6-2.7,2.9-2,5c0.7,2,2.5,3.2,4.2,2.9
		c0.1,0,0.1,0,0.2-0.1l0,0c8.6-1.7,17.9,4.3,18.4,12c0.5,6.2-5.5,9.7-11.9,9.1h0.1C64.5,32.9,72.9,28.3,73,19.6"/>
	<path class="st0" d="M66.1,23.4c-0.6-6.8-8.7-11.9-16.2-10.5l0,0c-0.1,0-0.1,0-0.2,0c-1.3,0.2-1.9,1.5-1.5,2.7s1.6,2,2.8,1.9h0.1
		l0,0c5.6-0.6,11.5,3.1,12.2,7.9c0.6,4.2-3.3,6.8-7.9,6.4c0,0,0,0,0.1,0C61.4,32.4,66.6,29.1,66.1,23.4"/>
</g>
<g>
	<g>
		<path class="st0" d="M108.4,35.7v20h-5.1v-20H96v-4.3h19.8v4.3H108.4z"/>
		<path class="st0" d="M137.6,31.5v4.3h-12.9v5.1h11.8v4.3h-11.8v6.3h13.5v4.3h-18.5V31.5H137.6z"/>
		<path class="st0" d="M164,39.4h-5.1c-0.3-1.2-0.8-2-1.3-2.6c-0.9-1.1-2.3-1.6-4.1-1.6c-1.6,0-2.9,0.6-3.9,1.7
			c-1.4,1.5-2.1,3.8-2.1,6.9c0,2.4,0.5,4.3,1.4,5.8c1.1,1.7,2.6,2.5,4.6,2.5c1.4,0,2.6-0.4,3.5-1.2s1.6-1.9,1.8-3.4h5.1
			c-0.5,2.8-1.7,4.9-3.3,6.5c-1.8,1.7-4.3,2.5-7.2,2.5c-3.3,0-6-1.1-8-3.2c-2.1-2.3-3.1-5.5-3.1-9.5c0-4.1,1.1-7.3,3.2-9.6
			c2-2.2,4.7-3.2,7.9-3.2c3.3,0,6,1,8,2.9C163.1,35.4,164,37.3,164,39.4z"/>
		<path class="st0" d="M183.3,44.9h-9.5v10.9h-5.1V31.5h5.1v9.2h9.5v-9.2h5.1v24.3h-5.1V44.9z"/>
		<path class="st0" d="M208.5,31.5h5.3l-8.3,24.3h-4.8l-8.2-24.3h5.4l5.2,18.4L208.5,31.5z"/>
		<path class="st0" d="M222.7,31.5v24.3h-5.1V31.5H222.7z"/>
		<path class="st0" d="M245.9,31.5v4.3H233v5.1h11.8v4.3H233v6.3h13.5v4.3H228V31.5H245.9z"/>
		<path class="st0" d="M262,35.7v20h-5.1v-20h-7.4v-4.3h19.8v4.3H262z"/>
	</g>
	<g>
		<path class="st0" d="M139.6,69.3c-0.4,0.3-0.9,0.5-1.4,0.6c-0.2,0-0.5,0.1-0.8,0.1c-0.2,0-0.5,0-0.8,0h-2.1v4.7h-1.2V63h3.2
			c0.3,0,0.6,0,0.8,0c0.3,0,0.5,0.1,0.8,0.1c0.6,0.1,1,0.3,1.4,0.6c1,0.7,1.4,1.6,1.4,2.8S140.5,68.6,139.6,69.3z M138.5,64.3
			c-0.3-0.1-0.6-0.2-1-0.3H137h-2.5v4.8h2.5h0.5c0.4,0,0.7-0.1,1-0.3c0.9-0.4,1.3-1.1,1.3-2.1S139.4,64.8,138.5,64.3z"/>
		<path class="st0" d="M145.3,67c-1.6,0.1-2.5,1-2.5,2.6v5h-1.1V66h1.1v1.2l0,0c0.2-0.5,0.5-0.9,1-1.1c0.3-0.2,0.8-0.3,1.4-0.3V67
			H145.3z"/>
		<path class="st0" d="M153,73.5c-0.9,0.9-1.9,1.3-3.2,1.3c-1.2,0-2.3-0.4-3.1-1.3c-0.9-0.9-1.3-1.9-1.3-3.1s0.4-2.3,1.3-3.2
			c0.9-0.9,1.9-1.4,3.2-1.4c1.2,0,2.3,0.4,3.2,1.3s1.3,1.9,1.3,3.2C154.3,71.5,153.9,72.6,153,73.5z M152.3,67.8
			c-0.7-0.7-1.5-1-2.4-1c-1,0-1.8,0.4-2.4,1.1c-0.6,0.7-1,1.5-1,2.5c0,0.9,0.3,1.8,1,2.4c0.7,0.7,1.5,1,2.4,1c1,0,1.8-0.4,2.4-1.1
			c0.6-0.7,0.9-1.5,0.9-2.5C153.2,69.3,152.9,68.5,152.3,67.8z"/>
		<path class="st0" d="M157,67v7.6h-1.1V67h-1.3v-1h1.3v-0.3c0-0.1,0-0.2,0-0.3c0-0.2,0.1-0.5,0.1-0.6c0.2-0.7,0.6-1.2,1.2-1.5
			c0.5-0.3,1.1-0.4,2-0.4v1c-1.5,0-2.2,0.7-2.2,2.2V66h2.2v1H157z"/>
		<path class="st0" d="M168,70.7h-7.8c0,0.8,0.4,1.6,1.1,2.2c0.7,0.6,1.4,0.9,2.3,0.9c0.7,0,1.3-0.2,1.9-0.5c0.6-0.4,1-0.9,1.2-1.5
			h1.2c-0.3,0.9-0.9,1.6-1.6,2.2c-0.8,0.6-1.6,0.8-2.6,0.8c-1.2,0-2.3-0.4-3.2-1.3s-1.3-1.9-1.3-3.2c0-1.2,0.4-2.3,1.3-3.2
			c0.9-0.9,1.9-1.3,3.2-1.3c1.2,0,2.3,0.5,3.2,1.4s1.3,2,1.3,3.2L168,70.7z M166.9,69.7c-0.1-0.8-0.5-1.5-1.1-2.1s-1.4-0.8-2.2-0.8
			s-1.6,0.3-2.2,0.8c-0.6,0.6-1,1.3-1.1,2.1H166.9z"/>
		<path class="st0" d="M171,74.8c-0.8,0-1.4-0.3-1.9-0.8s-0.7-1.1-0.7-1.9V72h1.1c0,1.2,0.5,1.8,1.5,1.8c1.1,0,1.6-0.5,1.6-1.5
			c0-0.5-0.2-0.9-0.6-1.2c-0.2-0.1-0.4-0.2-0.6-0.3l-0.7-0.3c-0.3-0.1-0.6-0.2-0.7-0.3c-0.3-0.1-0.5-0.3-0.6-0.4
			c-0.4-0.4-0.6-0.9-0.6-1.5c0-0.7,0.2-1.3,0.7-1.7c0.5-0.4,1-0.7,1.7-0.7s1.2,0.2,1.7,0.7c0.4,0.5,0.7,1,0.7,1.7h-1.1
			c-0.1-0.9-0.5-1.3-1.3-1.3c-0.9,0-1.3,0.4-1.3,1.3c0,0.4,0.2,0.8,0.6,1c0.2,0.1,0.4,0.2,0.6,0.3l0.2,0.1c0,0,0.1,0,0.2,0.1
			l0.4,0.1c0.3,0.1,0.5,0.2,0.7,0.3c0.3,0.1,0.5,0.3,0.6,0.5c0.4,0.4,0.6,1,0.6,1.7C173.6,73.9,172.7,74.8,171,74.8z"/>
		<path class="st0" d="M176.3,74.8c-0.8,0-1.4-0.3-1.9-0.8s-0.7-1.1-0.7-1.9V72h1.1c0,1.2,0.5,1.8,1.5,1.8c1.1,0,1.6-0.5,1.6-1.5
			c0-0.5-0.2-0.9-0.6-1.2c-0.2-0.1-0.4-0.2-0.6-0.3l-0.7-0.3c-0.3-0.1-0.6-0.2-0.7-0.3c-0.3-0.1-0.5-0.3-0.6-0.4
			c-0.4-0.4-0.6-0.9-0.6-1.5c0-0.7,0.2-1.3,0.7-1.7c0.5-0.4,1-0.7,1.7-0.7s1.2,0.2,1.7,0.7c0.4,0.5,0.7,1,0.7,1.7h-1.1
			c-0.1-0.9-0.5-1.3-1.3-1.3c-0.9,0-1.3,0.4-1.3,1.3c0,0.4,0.2,0.8,0.6,1c0.2,0.1,0.4,0.2,0.6,0.3l0.2,0.1c0,0,0.1,0,0.2,0.1
			l0.4,0.1c0.3,0.1,0.5,0.2,0.7,0.3c0.3,0.1,0.5,0.3,0.6,0.5c0.4,0.4,0.6,1,0.6,1.7C179,73.9,178.1,74.8,176.3,74.8z"/>
		<path class="st0" d="M179.7,65v-2h1.1v2H179.7z M179.7,74.6V66h1.1v8.6H179.7z"/>
		<path class="st0" d="M189.4,73.5c-0.9,0.9-1.9,1.3-3.2,1.3c-1.2,0-2.3-0.4-3.1-1.3c-0.9-0.9-1.3-1.9-1.3-3.1s0.4-2.3,1.3-3.2
			c0.9-0.9,1.9-1.4,3.2-1.4c1.2,0,2.3,0.4,3.2,1.3s1.3,1.9,1.3,3.2C190.7,71.5,190.3,72.6,189.4,73.5z M188.6,67.8
			c-0.7-0.7-1.5-1-2.4-1c-1,0-1.8,0.4-2.4,1.1c-0.6,0.7-1,1.5-1,2.5c0,0.9,0.3,1.8,1,2.4c0.7,0.7,1.5,1,2.4,1c1,0,1.8-0.4,2.4-1.1
			c0.6-0.7,0.9-1.5,0.9-2.5C189.6,69.3,189.3,68.5,188.6,67.8z"/>
		<path class="st0" d="M198.1,74.6v-4.7c0-0.5-0.1-0.9-0.2-1.3c-0.1-0.5-0.3-0.8-0.6-1.1c-0.5-0.5-1.1-0.7-1.9-0.7
			c-0.7,0-1.3,0.2-1.9,0.7c-0.3,0.3-0.5,0.6-0.6,1.1c-0.1,0.4-0.2,0.8-0.2,1.2v4.8h-1.1V66h1.1v1.1l0,0c0.6-0.9,1.4-1.3,2.6-1.3
			c1.2,0,2.1,0.4,2.8,1.1c0.6,0.7,1,1.7,1,2.9v4.7h-1V74.6z"/>
		<path class="st0" d="M208.1,74.6v-1.5l0,0c-0.8,1.1-1.9,1.7-3.3,1.7c-1.3,0-2.4-0.4-3.3-1.3c-0.9-0.9-1.3-1.9-1.3-3.2
			c0-1.3,0.5-2.3,1.4-3.2c0.9-0.9,2-1.3,3.3-1.3c1.5,0,2.6,0.6,3.3,1.7l0,0V66h1.1v8.6H208.1z M207.2,67.8c-0.7-0.7-1.5-1-2.5-1
			s-1.9,0.3-2.5,1c-0.7,0.7-1,1.5-1,2.5s0.3,1.8,1,2.5s1.5,1,2.5,1s1.8-0.3,2.5-1s1-1.5,1-2.5S207.8,68.5,207.2,67.8z"/>
		<path class="st0" d="M210.5,74.6V63h1.1v11.6H210.5z"/>
		<path class="st0" d="M218.5,74.8c-0.8,0-1.4-0.3-1.9-0.8s-0.7-1.1-0.7-1.9V72h1.1c0,1.2,0.5,1.8,1.5,1.8c1.1,0,1.6-0.5,1.6-1.5
			c0-0.5-0.2-0.9-0.6-1.2c-0.2-0.1-0.4-0.2-0.6-0.3l-0.7-0.3c-0.3-0.1-0.6-0.2-0.7-0.3c-0.3-0.1-0.5-0.3-0.6-0.4
			c-0.4-0.4-0.6-0.9-0.6-1.5c0-0.7,0.2-1.3,0.7-1.7c0.5-0.4,1-0.7,1.7-0.7s1.2,0.2,1.7,0.7c0.4,0.5,0.7,1,0.7,1.7H220
			c-0.1-0.9-0.5-1.3-1.3-1.3c-0.9,0-1.3,0.4-1.3,1.3c0,0.4,0.2,0.8,0.6,1c0.2,0.1,0.4,0.2,0.6,0.3l0.2,0.1c0,0,0.1,0,0.2,0.1
			l0.4,0.1c0.3,0.1,0.5,0.2,0.7,0.3c0.3,0.1,0.5,0.3,0.6,0.5c0.4,0.4,0.6,1,0.6,1.7C221.2,73.9,220.3,74.8,218.5,74.8z"/>
		<path class="st0" d="M230.4,70.7h-7.8c0,0.8,0.4,1.6,1.1,2.2c0.7,0.6,1.4,0.9,2.3,0.9c0.7,0,1.3-0.2,1.9-0.5
			c0.6-0.4,1-0.9,1.2-1.5h1.2c-0.3,0.9-0.9,1.6-1.6,2.2c-0.8,0.6-1.6,0.8-2.6,0.8c-1.2,0-2.3-0.4-3.2-1.3s-1.3-1.9-1.3-3.2
			c0-1.2,0.4-2.3,1.3-3.2c0.9-0.9,1.9-1.3,3.2-1.3c1.2,0,2.3,0.5,3.2,1.4s1.3,2,1.3,3.2L230.4,70.7z M229.3,69.7
			c-0.1-0.8-0.5-1.5-1.1-2.1s-1.4-0.8-2.2-0.8s-1.6,0.3-2.2,0.8c-0.6,0.6-1,1.3-1.1,2.1H229.3z"/>
		<path class="st0" d="M234.9,67c-1.6,0.1-2.5,1-2.5,2.6v5h-1.1V66h1.1v1.2l0,0c0.2-0.5,0.5-0.9,1-1.1c0.3-0.2,0.8-0.3,1.4-0.3V67
			H234.9z"/>
		<path class="st0" d="M239.2,74.6H238l-3.6-8.6h1.2l3,7.2l3.1-7.2h1.2L239.2,74.6z"/>
		<path class="st0" d="M243.3,65v-2h1.1v2H243.3z M243.3,74.6V66h1.1v8.6H243.3z"/>
		<path class="st0" d="M254.2,72.1c-0.9,1.8-2.3,2.7-4.3,2.7c-1.3,0-2.4-0.4-3.3-1.3c-0.9-0.9-1.4-1.9-1.4-3.2
			c0-1.3,0.5-2.3,1.4-3.2c0.9-0.9,2-1.3,3.2-1.3c0.9,0,1.8,0.2,2.6,0.7s1.4,1.2,1.7,2.1H253c-0.6-1.2-1.6-1.8-3-1.8
			c-1,0-1.8,0.3-2.5,1s-1,1.5-1,2.5s0.3,1.8,1,2.5s1.5,1,2.5,1c1.4,0,2.4-0.6,3-1.7C253,72.1,254.2,72.1,254.2,72.1z"/>
		<path class="st0" d="M263.6,70.7h-7.8c0,0.8,0.4,1.6,1.1,2.2c0.7,0.6,1.4,0.9,2.3,0.9c0.7,0,1.3-0.2,1.9-0.5
			c0.6-0.4,1-0.9,1.2-1.5h1.2c-0.3,0.9-0.9,1.6-1.6,2.2c-0.8,0.6-1.6,0.8-2.6,0.8c-1.2,0-2.3-0.4-3.2-1.3c-0.9-0.9-1.3-1.9-1.3-3.2
			c0-1.2,0.4-2.3,1.3-3.2c0.9-0.9,1.9-1.3,3.2-1.3c1.2,0,2.3,0.5,3.2,1.4c0.9,0.9,1.3,2,1.3,3.2L263.6,70.7z M262.5,69.7
			c-0.1-0.8-0.5-1.5-1.1-2.1s-1.4-0.8-2.2-0.8c-0.8,0-1.6,0.3-2.2,0.8c-0.6,0.6-1,1.3-1.1,2.1H262.5z"/>
		<path class="st0" d="M266.6,74.8c-0.8,0-1.4-0.3-1.9-0.8s-0.7-1.1-0.7-1.9V72h1.1c0,1.2,0.5,1.8,1.5,1.8c1.1,0,1.6-0.5,1.6-1.5
			c0-0.5-0.2-0.9-0.6-1.2c-0.2-0.1-0.4-0.2-0.6-0.3l-0.7-0.3c-0.3-0.1-0.6-0.2-0.7-0.3c-0.3-0.1-0.5-0.3-0.6-0.4
			c-0.4-0.4-0.6-0.9-0.6-1.5c0-0.7,0.2-1.3,0.7-1.7c0.5-0.4,1-0.7,1.7-0.7s1.2,0.2,1.7,0.7c0.4,0.5,0.7,1,0.7,1.7h-1.1
			c-0.1-0.9-0.5-1.3-1.3-1.3c-0.9,0-1.3,0.4-1.3,1.3c0,0.4,0.2,0.8,0.6,1c0.2,0.1,0.4,0.2,0.6,0.3l0.2,0.1c0,0,0.1,0,0.2,0.1
			l0.4,0.1c0.3,0.1,0.5,0.2,0.7,0.3c0.3,0.1,0.5,0.3,0.6,0.5c0.4,0.4,0.6,1,0.6,1.7C269.3,73.9,268.4,74.8,266.6,74.8z"/>
	</g>
</g>
</svg>
