<?xml version="1.0" encoding="utf-8"?>
<!-- Generator: Adobe Illustrator 24.1.1, SVG Export Plug-In . SVG Version: 6.00 Build 0)  -->
<svg version="1.1" id="Layer_1" xmlns="http://www.w3.org/2000/svg" xmlns:xlink="http://www.w3.org/1999/xlink" x="0px" y="0px"
	 viewBox="0 0 215.5 18.8" style="enable-background:new 0 0 215.5 18.8;" xml:space="preserve">
<style type="text/css">
	.st0{fill:#FFFFFF;stroke:#FFFFFF;stroke-miterlimit:10;}
	.st1{fill:#FFFFFF;stroke:#FFFFFF;stroke-width:1.5;stroke-linecap:round;stroke-linejoin:round;stroke-miterlimit:10;}
	.st2{fill:#FFFFFF;}
</style>
<line class="st0" x1="90.3" y1="9.4" x2="3.6" y2="9.4"/>
<line class="st1" x1="124.5" y1="9.4" x2="213.1" y2="9.4"/>
<g>
	<path class="st2" d="M114.1,15c-5,5-13.9,2.6-16.8-4.4l0,0c0,0,0-0.1-0.1-0.1c-0.4-1.1,0.2-2.4,1.4-2.9c1.1-0.5,2.3-0.2,2.8,0.7
		c0,0,0,0.1,0.1,0.1l0,0c2.6,4.4,8.7,6.1,12.2,3.2c2.8-2.4,2-6.4-0.7-9c0,0,0,0,0,0C116.5,5.8,117.8,11.4,114.1,15"/>
	<path class="st2" d="M113.2,10c-3.1,2.4-8.3,0.9-10.7-2.8l0,0c0,0,0,0-0.1-0.1c-0.4-0.6-0.1-1.4,0.5-1.7c0.6-0.3,1.5-0.1,1.9,0.4
		c0,0,0,0,0,0.1l0,0c1.9,2.6,5.8,3.6,8,2.1c2-1.4,1.6-4-0.4-5.8c0,0,0,0,0,0C115.2,4.6,115.8,8.1,113.2,10"/>
	<path class="st2" d="M113.3,5.1c0-2.7-3.1-4.7-5.8-3.8l0,0c0,0,0,0-0.1,0c-0.4,0.1-0.6,0.7-0.4,1.1c0.2,0.4,0.6,0.7,1,0.7
		c0,0,0,0,0,0l0,0c2-0.4,4.1,1,4.2,2.7c0.1,1.4-1.3,2.2-2.7,2.1c0,0,0,0,0,0C111.3,8.2,113.2,7.1,113.3,5.1"/>
	<path class="st2" d="M111.7,6c-0.1-1.5-2-2.7-3.7-2.4v0c0,0,0,0,0,0c-0.3,0.1-0.4,0.3-0.4,0.6c0.1,0.3,0.4,0.5,0.6,0.4c0,0,0,0,0,0
		v0c1.3-0.1,2.6,0.7,2.8,1.8c0.1,0.9-0.7,1.5-1.8,1.5c0,0,0,0,0,0C110.6,8.1,111.8,7.3,111.7,6"/>
</g>
</svg>
